<?xml version="1.0" standalone="no"?>
<!DOCTYPE svg PUBLIC "-//W3C//DTD SVG 20010904//EN"
 "http://www.w3.org/TR/2001/REC-SVG-20010904/DTD/svg10.dtd">
<svg version="1.0" xmlns="http://www.w3.org/2000/svg"
 width="1258.000000pt" height="1258.000000pt" viewBox="0 0 1258.000000 1258.000000"
 preserveAspectRatio="xMidYMid meet">
<metadata>
Created by potrace 1.14, written by Peter Selinger 2001-2017
</metadata>
<g transform="translate(0.000000,1258.000000) scale(0.100000,-0.100000)"
fill="#000000" stroke="none">
<path d="M6048 12345 c-1 -1 -43 -6 -93 -9 -107 -7 -146 -12 -285 -32 -58 -8
-118 -17 -135 -19 -49 -7 -277 -54 -315 -64 -19 -6 -108 -29 -198 -51 -403
-100 -846 -281 -1186 -486 -49 -30 -90 -54 -92 -54 -1 0 -67 -43 -146 -97
-494 -333 -795 -612 -1188 -1100 -5 -6 -45 -62 -90 -125 -44 -62 -84 -118 -89
-124 -5 -6 -38 -55 -73 -110 -274 -421 -472 -871 -597 -1358 -22 -85 -42 -165
-45 -178 -3 -13 -16 -72 -30 -133 -13 -60 -27 -127 -30 -147 -3 -21 -12 -75
-20 -120 -8 -46 -17 -112 -21 -148 -4 -36 -9 -78 -11 -95 -13 -110 -19 -273
-19 -490 0 -262 6 -368 31 -555 28 -219 70 -439 118 -622 9 -31 17 -67 20 -80
47 -229 206 -656 351 -942 97 -191 238 -432 293 -501 4 -5 38 -55 76 -110 38
-55 78 -112 90 -126 12 -15 30 -39 41 -55 24 -34 206 -254 255 -308 70 -78
287 -292 365 -361 44 -38 82 -72 85 -75 15 -16 250 -197 344 -264 269 -194
548 -355 841 -486 141 -64 440 -174 570 -210 193 -54 525 -132 615 -145 25 -3
52 -8 60 -10 8 -3 33 -7 55 -10 22 -3 51 -7 65 -10 13 -2 54 -7 90 -10 36 -4
72 -8 80 -10 70 -19 663 -27 835 -12 148 13 189 17 215 22 14 2 45 7 70 10
354 46 935 197 1200 312 8 3 17 7 20 7 3 1 26 10 50 20 213 91 418 195 640
326 31 19 330 219 344 231 10 9 74 58 156 119 279 210 643 578 855 865 16 22
33 45 37 50 54 67 137 189 284 415 58 90 274 503 274 524 0 3 12 31 26 63 14
32 30 67 35 78 82 185 229 699 284 990 3 17 8 41 10 55 13 64 35 211 40 265 4
33 8 71 10 85 20 116 27 630 13 820 -10 121 -17 197 -23 235 -3 17 -7 48 -10
70 -12 82 -45 263 -60 335 -9 41 -18 82 -20 90 -2 8 -12 51 -24 95 -11 44 -22
91 -25 105 -7 39 -47 183 -52 192 -3 4 -7 17 -9 28 -7 37 -86 263 -130 370
-89 221 -196 437 -313 635 -33 55 -176 277 -194 300 -5 6 -40 55 -80 110 -232
324 -516 628 -818 876 -183 150 -513 389 -538 389 -5 0 -15 6 -21 14 -11 13
-86 58 -241 145 -78 44 -325 164 -390 190 -30 13 -68 29 -85 36 -157 73 -581
202 -825 251 -13 3 -60 13 -105 23 -44 10 -96 22 -115 25 -19 3 -46 8 -60 11
-14 3 -45 7 -70 10 -25 3 -56 7 -70 10 -35 7 -92 13 -180 21 -41 3 -86 8 -100
11 -28 6 -616 14 -622 8z"/>
<path d="M9583 1595 c-17 -7 -34 -22 -37 -33 -5 -15 -10 -729 -7 -869 1 -22 4
-23 96 -23 l95 0 2 324 3 324 86 -81 c47 -45 150 -143 230 -217 130 -122 230
-216 327 -308 50 -47 81 -60 140 -58 39 1 57 7 74 24 l22 22 1 442 0 443 -97
3 -98 3 -2 -331 -3 -330 -120 116 c-66 63 -203 195 -304 292 -101 97 -200 193
-220 212 -60 60 -121 74 -188 45z"/>
<path d="M2010 1130 l0 -460 413 0 c423 1 482 5 552 42 58 31 98 92 110 168
12 74 7 468 -6 527 -19 85 -82 146 -174 169 -17 4 -225 9 -462 11 l-433 4 0
-461z m806 277 c24 -7 39 -21 52 -48 16 -33 19 -61 18 -236 -1 -175 -3 -202
-19 -227 -34 -51 -56 -54 -367 -53 l-285 2 -1 275 c0 151 2 280 4 287 5 16
546 16 598 0z"/>
<path d="M3501 1558 c19 -18 95 -87 169 -153 74 -66 142 -127 150 -135 9 -8
55 -49 101 -91 l84 -76 0 -217 0 -216 102 0 103 0 0 213 c0 116 4 217 8 222 4
6 48 46 97 90 50 43 97 86 106 95 26 25 179 163 257 231 l73 64 -132 3 c-73 1
-135 -1 -138 -5 -3 -5 -22 -21 -41 -37 -19 -15 -53 -45 -75 -65 -22 -20 -72
-63 -110 -96 -39 -33 -86 -74 -105 -92 l-34 -32 -66 57 c-36 31 -72 63 -81 72
-9 8 -31 29 -50 45 -19 17 -66 58 -105 93 l-72 62 -138 0 -138 0 35 -32z"/>
<path d="M5316 1573 c-83 -25 -125 -58 -154 -121 -25 -56 -26 -63 -28 -292 -2
-141 2 -257 8 -290 13 -65 49 -123 92 -149 72 -45 128 -50 520 -51 l371 0 -1
80 c0 44 -2 82 -5 85 -3 2 -166 6 -363 7 l-358 3 -29 33 c-32 36 -31 23 -31
287 0 88 5 172 11 187 5 15 22 35 38 45 27 18 114 21 668 23 l70 0 -2 78 c-1
42 -2 81 -2 85 -1 4 -171 7 -378 6 -300 -1 -388 -4 -427 -16z"/>
<path d="M6730 1574 c-109 -29 -158 -83 -178 -193 -13 -74 -9 -486 6 -537 27
-93 90 -143 206 -165 37 -7 165 -9 345 -7 322 5 353 11 417 76 59 61 68 112
68 387 0 271 -9 319 -69 379 -65 65 -94 70 -435 72 -242 2 -316 0 -360 -12z
m590 -168 c62 -20 70 -51 70 -276 0 -225 -8 -256 -70 -277 -42 -14 -457 -16
-507 -1 -59 16 -66 44 -65 275 0 247 7 270 87 286 49 10 452 4 485 -7z"/>
<path d="M8250 1579 c-66 -13 -132 -50 -158 -89 -41 -61 -46 -102 -46 -370 -1
-254 0 -255 25 -311 28 -59 61 -89 131 -116 36 -15 89 -18 338 -20 310 -2 367
3 440 40 48 24 94 87 105 142 12 56 12 468 0 532 -18 95 -57 143 -143 178 -42
17 -80 19 -347 21 -165 2 -320 -1 -345 -7z m570 -173 c63 -20 70 -50 69 -282
-1 -230 -7 -254 -74 -273 -44 -12 -457 -12 -502 1 -58 15 -65 45 -65 262 -1
105 3 207 7 226 7 33 29 57 65 71 28 11 463 7 500 -5z"/>
</g>
</svg>
